# xmcd
#
# Track frame offsets:
# 150
# 22876
# 44388
# 63661
# 77668
# 102961
# 122289
# 148802
# 160117
# 182002
# 198225
# 214950
# 234705
# 259306
# 272650
# 290446
#
# Disc length: 4439 seconds
#
#
# Revision: 0
# Processed by: cddbd v1.5.1PL2 Copyright (c) Steve Scherf et al.
# Submitted via: FreeRIP 2.92 
#
DISCID=e7115510
DTITLE=Duffy Bishop - Back to the Bone
DYEAR=1996
DGENRE=Blues
TTITLE0=Damn Blues
TTITLE1=Love You're After
TTITLE2=Convince Me
TTITLE3=Ease My Pain
TTITLE4=Thinking
TTITLE5=Buzzin
TTITLE6=Growing Old
TTITLE7=First Thing Smokin
TTITLE8=Old Dog
TTITLE9=Get Back To The Bone
TTITLE10=Daughter's Lament
TTITLE11=How Can I Forgive Him
TTITLE12=Prize Fighter
TTITLE13=Friggy Diggy
TTITLE14=More Than Words Can Say
TTITLE15=Coming To A Party
EXTD=
EXTT0=
EXTT1=
EXTT2=
EXTT3=
EXTT4=
EXTT5=
EXTT6=
EXTT7=
EXTT8=
EXTT9=
EXTT10=
EXTT11=
EXTT12=
EXTT13=
EXTT14=
EXTT15=
PLAYORDER=
